<svg width="31" height="31" viewBox="0 0 31 31" fill="none" xmlns="http://www.w3.org/2000/svg">
<path d="M15.8054 9.90907C12.4802 9.90907 9.79665 12.5927 9.79665 15.9179C9.79665 19.2431 12.4802 21.9267 15.8054 21.9267C19.1306 21.9267 21.8142 19.2431 21.8142 15.9179C21.8142 12.5927 19.1306 9.90907 15.8054 9.90907ZM15.8054 19.8231C13.655 19.8231 11.9002 18.0683 11.9002 15.9179C11.9002 13.7675 13.655 12.0126 15.8054 12.0126C17.9558 12.0126 19.7107 13.7675 19.7107 15.9179C19.7107 18.0683 17.9558 19.8231 15.8054 19.8231ZM22.0603 8.26259C21.284 8.26259 20.657 8.88954 20.657 9.66591C20.657 10.4423 21.284 11.0692 22.0603 11.0692C22.8367 11.0692 23.4636 10.4452 23.4636 9.66591C23.4639 9.48156 23.4277 9.29897 23.3573 9.12861C23.2868 8.95825 23.1835 8.80345 23.0531 8.6731C22.9228 8.54274 22.768 8.43938 22.5976 8.36894C22.4273 8.2985 22.2447 8.26236 22.0603 8.26259ZM27.5183 15.9179C27.5183 14.3007 27.533 12.6981 27.4422 11.0839C27.3513 9.20888 26.9236 7.54482 25.5525 6.17372C24.1785 4.7997 22.5173 4.37489 20.6423 4.28407C19.0252 4.19325 17.4226 4.2079 15.8084 4.2079C14.1912 4.2079 12.5886 4.19325 10.9744 4.28407C9.09938 4.37489 7.43532 4.80263 6.06423 6.17372C4.6902 7.54775 4.2654 9.20888 4.17458 11.0839C4.08376 12.7011 4.09841 14.3036 4.09841 15.9179C4.09841 17.5321 4.08376 19.1376 4.17458 20.7519C4.2654 22.6269 4.69313 24.2909 6.06423 25.662C7.43825 27.036 9.09938 27.4608 10.9744 27.5517C12.5916 27.6425 14.1941 27.6278 15.8084 27.6278C17.4256 27.6278 19.0281 27.6425 20.6423 27.5517C22.5173 27.4608 24.1814 27.0331 25.5525 25.662C26.9265 24.288 27.3513 22.6269 27.4422 20.7519C27.5359 19.1376 27.5183 17.5351 27.5183 15.9179ZM24.9402 22.8261C24.7263 23.3593 24.4685 23.7577 24.0554 24.1679C23.6423 24.581 23.2468 24.8388 22.7136 25.0526C21.1726 25.6649 17.5134 25.5272 15.8054 25.5272C14.0974 25.5272 10.4353 25.6649 8.8943 25.0556C8.3611 24.8417 7.96266 24.5839 7.55251 24.1708C7.13942 23.7577 6.88161 23.3622 6.66774 22.829C6.05837 21.2851 6.19606 17.6259 6.19606 15.9179C6.19606 14.2099 6.05837 10.5477 6.66774 9.00673C6.88161 8.47353 7.13942 8.07509 7.55251 7.66493C7.96559 7.25478 8.3611 6.99404 8.8943 6.78017C10.4353 6.17079 14.0974 6.30849 15.8054 6.30849C17.5134 6.30849 21.1756 6.17079 22.7166 6.78017C23.2498 6.99404 23.6482 7.25185 24.0584 7.66493C24.4715 8.07802 24.7293 8.47353 24.9431 9.00673C25.5525 10.5477 25.4148 14.2099 25.4148 15.9179C25.4148 17.6259 25.5525 21.2851 24.9402 22.8261Z" fill="#1E2123"/>
</svg>
