<svg width="18" height="18" viewBox="0 0 18 18" fill="none" xmlns="http://www.w3.org/2000/svg">
<path d="M8.76714 0.477981C7.36994 0.496852 4.3636 0.726211 2.68188 2.26712C1.43347 3.50827 0.997255 5.33806 0.946447 7.60407C0.902898 9.86136 0.852091 14.1001 4.93845 15.2549V17.0114C4.93845 17.0114 4.91087 17.7154 5.37539 17.8606C5.94879 18.0421 6.27541 17.4984 6.81977 16.9178L7.83592 15.771C10.6303 16.0032 12.7715 15.4669 13.0183 15.387C13.5844 15.2056 16.7787 14.7984 17.3013 10.5589C17.8384 6.18146 17.04 3.42335 15.6029 2.17495L15.5956 2.17349C15.1602 1.77429 13.4182 0.504111 9.52054 0.489594C9.52054 0.489594 9.23312 0.471449 8.76714 0.477981ZM8.81577 1.7097C9.21134 1.70752 9.45449 1.72421 9.45449 1.72421C12.7497 1.73147 14.3255 2.72584 14.6956 3.05972C15.9077 4.09691 16.5305 6.58429 16.0747 10.2395C15.6392 13.7815 13.048 14.0065 12.569 14.1589C12.3658 14.2243 10.4786 14.6888 8.10374 14.5364C8.10374 14.5364 6.33347 16.671 5.78185 17.2226C5.69475 17.317 5.59314 17.346 5.52781 17.3315C5.43346 17.3097 5.40443 17.1936 5.41168 17.0339L5.4262 14.1168C1.96332 13.1588 2.16655 9.54273 2.20284 7.6556C2.24639 5.76847 2.60204 4.22103 3.65448 3.17585C5.0749 1.89115 7.62833 1.71695 8.81505 1.7097H8.81577ZM9.07707 3.59682C9.04851 3.59673 9.02021 3.60227 8.99379 3.61313C8.96738 3.624 8.94337 3.63997 8.92314 3.66013C8.90291 3.68029 8.88686 3.70425 8.87591 3.73063C8.86496 3.757 8.85932 3.78528 8.85932 3.81384C8.85932 3.87159 8.88226 3.92698 8.9231 3.96781C8.96393 4.00865 9.01932 4.03159 9.07707 4.03159C9.61667 4.02129 10.153 4.11798 10.655 4.31605C11.1571 4.51413 11.6149 4.80968 12.0021 5.18564C12.7933 5.95501 13.1787 6.98567 13.1932 8.33569C13.1932 8.36429 13.1988 8.3926 13.2098 8.41902C13.2207 8.44544 13.2367 8.46944 13.257 8.48966C13.2772 8.50988 13.3012 8.52592 13.3276 8.53686C13.354 8.54781 13.3823 8.55344 13.4109 8.55344V8.54691C13.4687 8.54691 13.5241 8.52397 13.5649 8.48313C13.6057 8.4423 13.6287 8.38691 13.6287 8.32916C13.6556 7.69428 13.553 7.06056 13.3272 6.46659C13.1013 5.87263 12.7569 5.33086 12.3149 4.87426C11.4512 4.03232 10.361 3.59682 9.07634 3.59682H9.07707ZM6.20718 4.09764C6.05283 4.07564 5.89556 4.10633 5.7608 4.18474H5.75209C5.45451 4.35893 5.18015 4.57668 4.91885 4.86701C4.72288 5.09927 4.61328 5.3308 4.58425 5.55581C4.56717 5.68777 4.57957 5.82188 4.62054 5.94848L4.63506 5.95573C4.85878 6.61343 5.15069 7.24592 5.50604 7.84286C5.96665 8.67888 6.53257 9.45237 7.18994 10.1444L7.21171 10.1735L7.24075 10.1952L7.26252 10.217L7.2843 10.2388C7.97907 10.8978 8.75462 11.4661 9.5924 11.9299C10.5505 12.4525 11.1326 12.6993 11.481 12.8009V12.8082C11.5826 12.8372 11.6755 12.8517 11.7699 12.8517C12.0672 12.83 12.3488 12.7094 12.5697 12.5091C12.8528 12.2551 13.0778 11.9735 13.2447 11.6759V11.6687C13.4117 11.3566 13.3536 11.0582 13.1141 10.855C12.6314 10.4327 12.1087 10.0584 11.5536 9.73725C11.1834 9.53402 10.806 9.65741 10.6535 9.86064L10.3269 10.2736C10.16 10.4769 9.85514 10.4478 9.85514 10.4478L9.84643 10.4551C7.58188 9.87443 6.97945 7.58157 6.97945 7.58157C6.97945 7.58157 6.95042 7.26947 7.16091 7.10979L7.56736 6.78317C7.76334 6.62349 7.90124 6.24606 7.69075 5.87589C7.37005 5.32045 6.99567 4.79778 6.57299 4.31538C6.48105 4.20135 6.35125 4.12409 6.20718 4.09764ZM9.45377 4.74362C9.39602 4.74381 9.34071 4.76694 9.30001 4.80791C9.25931 4.84888 9.23656 4.90434 9.23675 4.96209C9.23694 5.01984 9.26007 5.07515 9.30104 5.11585C9.34201 5.15654 9.39747 5.1793 9.45522 5.17911C10.1816 5.19172 10.8733 5.49189 11.3786 6.0138C11.6066 6.26531 11.7819 6.55996 11.8941 6.88034C12.0063 7.20073 12.0531 7.54036 12.0319 7.87915C12.0321 7.93678 12.0551 7.99198 12.0959 8.03265C12.1367 8.07333 12.192 8.09617 12.2496 8.09617L12.2569 8.10488C12.2855 8.10488 12.3139 8.09923 12.3404 8.08824C12.3668 8.07725 12.3909 8.06115 12.4111 8.04085C12.4313 8.02055 12.4474 7.99646 12.4583 7.96996C12.4692 7.94346 12.4747 7.91507 12.4746 7.88641C12.4964 7.02269 12.2278 6.29687 11.698 5.71621C11.1681 5.13556 10.4278 4.80894 9.48425 4.74362C9.4741 4.74291 9.46392 4.74291 9.45377 4.74362ZM9.80942 5.91872C9.7803 5.91786 9.7513 5.92275 9.72407 5.9331C9.69683 5.94345 9.67191 5.95906 9.65071 5.97904C9.62952 5.99903 9.61246 6.02299 9.60053 6.04956C9.58859 6.07614 9.58201 6.1048 9.58115 6.13392C9.58029 6.16304 9.58518 6.19204 9.59553 6.21928C9.60588 6.24651 9.62149 6.27143 9.64147 6.29263C9.66146 6.31382 9.68542 6.33088 9.712 6.34281C9.73857 6.35475 9.76723 6.36133 9.79635 6.36219C10.5149 6.39848 10.8633 6.76139 10.9069 7.50899C10.9087 7.56547 10.9325 7.61901 10.9731 7.65828C11.0138 7.69756 11.0681 7.7195 11.1246 7.71947H11.1319C11.1611 7.71856 11.1899 7.71177 11.2164 7.6995C11.243 7.68723 11.2668 7.66973 11.2864 7.64805C11.3061 7.62637 11.3212 7.60096 11.3308 7.57332C11.3404 7.54569 11.3443 7.5164 11.3423 7.48721C11.2915 6.51461 10.7617 5.96953 9.81813 5.91872C9.81522 5.91866 9.81232 5.91866 9.80942 5.91872Z" fill="#664EF9"/>
</svg>
